<svg width="860" height="560" viewBox="0 0 860 560" xmlns="http://www.w3.org/2000/svg" style="background:#fafafa;font-family:Arial,sans-serif">
<defs>
  <marker id="arr" viewBox="0 0 10 10" refX="8" refY="5" markerWidth="6" markerHeight="6" orient="auto-start-reverse">
    <path d="M2 1L8 5L2 9" fill="none" stroke="#555" stroke-width="1.5" stroke-linecap="round" stroke-linejoin="round"/>
  </marker>
  <marker id="arr-red" viewBox="0 0 10 10" refX="8" refY="5" markerWidth="6" markerHeight="6" orient="auto-start-reverse">
    <path d="M2 1L8 5L2 9" fill="none" stroke="#c62828" stroke-width="1.5" stroke-linecap="round" stroke-linejoin="round"/>
  </marker>
  <marker id="arr-blue" viewBox="0 0 10 10" refX="8" refY="5" markerWidth="6" markerHeight="6" orient="auto-start-reverse">
    <path d="M2 1L8 5L2 9" fill="none" stroke="#1a73e8" stroke-width="1.5" stroke-linecap="round" stroke-linejoin="round"/>
  </marker>
</defs>

<!-- Title -->
<text x="430" y="28" text-anchor="middle" font-size="16" font-weight="bold" fill="#1a53a0">Assignment 3 — Auto-Scaling Architecture | IIT Jodhpur | GCP</text>

<!-- LOCAL VM ZONE -->
<rect x="20" y="45" width="390" height="420" rx="16" fill="none" stroke="#1D9E75" stroke-width="1.5" stroke-dasharray="8 4"/>
<text x="215" y="68" text-anchor="middle" font-size="13" font-weight="bold" fill="#0F6E56">Local Environment (VirtualBox — Ubuntu 24.04)</text>

<!-- stress tool -->
<rect x="40" y="80" width="170" height="50" rx="8" fill="#F1EFE8" stroke="#5F5E5A" stroke-width="0.8"/>
<text x="125" y="100" text-anchor="middle" font-size="12" font-weight="bold" fill="#444441">stress --cpu 2</text>
<text x="125" y="117" text-anchor="middle" font-size="10" fill="#5F5E5A">Simulates CPU spike</text>

<!-- Sample App local -->
<rect x="220" y="80" width="170" height="50" rx="8" fill="#E1F5EE" stroke="#1D9E75" stroke-width="0.8"/>
<text x="305" y="100" text-anchor="middle" font-size="12" font-weight="bold" fill="#085041">Sample Flask App</text>
<text x="305" y="117" text-anchor="middle" font-size="10" fill="#0F6E56">localhost:5000</text>

<!-- monitor.py -->
<rect x="40" y="160" width="350" height="60" rx="8" fill="#EEEDFE" stroke="#534AB7" stroke-width="1"/>
<text x="215" y="183" text-anchor="middle" font-size="13" font-weight="bold" fill="#3C3489">monitor.py</text>
<text x="215" y="200" text-anchor="middle" font-size="10" fill="#534AB7">Reads CPU via top | Checks every 5s | Threshold: 70%</text>

<!-- Policy check -->
<rect x="40" y="250" width="350" height="60" rx="8" fill="#FAEEDA" stroke="#BA7517" stroke-width="0.8"/>
<text x="215" y="273" text-anchor="middle" font-size="13" font-weight="bold" fill="#633806">Auto-Scaling Policy Check</text>
<text x="215" y="291" text-anchor="middle" font-size="10" fill="#854F0B">CPU &gt; 70%? | Cooldown expired? | Instances &lt; 3?</text>

<!-- gcloud CLI -->
<rect x="40" y="340" width="350" height="60" rx="8" fill="#FCEBEB" stroke="#A32D2D" stroke-width="0.8"/>
<text x="215" y="363" text-anchor="middle" font-size="13" font-weight="bold" fill="#791F1F">gcloud compute instances create</text>
<text x="215" y="381" text-anchor="middle" font-size="10" fill="#A32D2D">e2-micro | asia-south2-a | ubuntu-2204-lts</text>

<!-- Arrows inside local -->
<line x1="125" y1="130" x2="155" y2="158" stroke="#555" stroke-width="1" stroke-dasharray="4 3" marker-end="url(#arr)"/>
<text x="115" y="150" font-size="10" fill="#777">CPU spike</text>
<line x1="215" y1="220" x2="215" y2="248" stroke="#555" stroke-width="1.2" marker-end="url(#arr)"/>
<text x="220" y="240" font-size="10" fill="#777">check</text>
<line x1="215" y1="310" x2="215" y2="338" stroke="#c62828" stroke-width="1.5" marker-end="url(#arr-red)"/>
<text x="220" y="330" font-size="10" fill="#c62828">trigger</text>

<!-- INTERNET ARROW -->
<line x1="412" y1="370" x2="478" y2="370" stroke="#1a73e8" stroke-width="2" marker-end="url(#arr-blue)"/>
<text x="445" y="362" text-anchor="middle" font-size="11" fill="#1a73e8">gcloud API</text>

<!-- GCP ZONE -->
<rect x="480" y="45" width="360" height="420" rx="16" fill="none" stroke="#1a73e8" stroke-width="1.5" stroke-dasharray="8 4"/>
<text x="660" y="68" text-anchor="middle" font-size="13" font-weight="bold" fill="#0C447C">Google Cloud Platform</text>
<text x="660" y="84" text-anchor="middle" font-size="11" fill="#185FA5">Project: auto-scale-vm-project | Zone: asia-south2-a</text>

<!-- GCP Instance -->
<rect x="500" y="95" width="320" height="60" rx="8" fill="#E6F1FB" stroke="#185FA5" stroke-width="0.8"/>
<text x="660" y="118" text-anchor="middle" font-size="13" font-weight="bold" fill="#0C447C">Compute Engine Instance</text>
<text x="660" y="138" text-anchor="middle" font-size="10" fill="#185FA5">autoscale-vm | e2-micro | RUNNING</text>

<!-- Startup script -->
<rect x="500" y="180" width="320" height="60" rx="8" fill="#EAF3DE" stroke="#3B6D11" stroke-width="0.8"/>
<text x="660" y="203" text-anchor="middle" font-size="13" font-weight="bold" fill="#27500A">Startup Script (auto-runs)</text>
<text x="660" y="221" text-anchor="middle" font-size="10" fill="#3B6D11">apt install python3 flask → start app.py</text>

<!-- Flask on GCP -->
<rect x="500" y="265" width="320" height="60" rx="8" fill="#E1F5EE" stroke="#1D9E75" stroke-width="0.8"/>
<text x="660" y="288" text-anchor="middle" font-size="13" font-weight="bold" fill="#085041">Sample App (GCP)</text>
<text x="660" y="306" text-anchor="middle" font-size="10" fill="#0F6E56">http://34.131.111.9 — port 80</text>

<!-- Firewall -->
<rect x="500" y="350" width="320" height="55" rx="8" fill="#F1EFE8" stroke="#5F5E5A" stroke-width="0.8"/>
<text x="660" y="372" text-anchor="middle" font-size="13" font-weight="bold" fill="#444441">Firewall Rule</text>
<text x="660" y="390" text-anchor="middle" font-size="10" fill="#5F5E5A">http-server tag | tcp:80 | 0.0.0.0/0</text>

<!-- GCP Console -->
<rect x="500" y="428" width="320" height="25" rx="6" fill="#FAEEDA" stroke="#BA7517" stroke-width="0.8"/>
<text x="660" y="445" text-anchor="middle" font-size="11" fill="#633806">GCP Console — Observability Dashboard (CPU graph visible)</text>

<!-- Arrows inside GCP -->
<line x1="660" y1="155" x2="660" y2="178" stroke="#555" stroke-width="1.2" marker-end="url(#arr)"/>
<line x1="660" y1="240" x2="660" y2="263" stroke="#555" stroke-width="1.2" marker-end="url(#arr)"/>
<line x1="660" y1="325" x2="660" y2="348" stroke="#555" stroke-width="1.2" marker-end="url(#arr)"/>

<!-- Legend -->
<rect x="20" y="482" width="820" height="70" rx="10" fill="none" stroke="#ccc" stroke-width="0.5"/>
<text x="430" y="500" text-anchor="middle" font-size="12" font-weight="bold" fill="#333">Legend</text>
<rect x="40" y="508" width="12" height="12" rx="2" fill="#E1F5EE" stroke="#1D9E75" stroke-width="0.8"/>
<text x="58" y="519" font-size="11" fill="#333">Application</text>
<rect x="160" y="508" width="12" height="12" rx="2" fill="#EEEDFE" stroke="#534AB7" stroke-width="0.8"/>
<text x="178" y="519" font-size="11" fill="#333">Monitor script</text>
<rect x="300" y="508" width="12" height="12" rx="2" fill="#FAEEDA" stroke="#BA7517" stroke-width="0.8"/>
<text x="318" y="519" font-size="11" fill="#333">Policy check</text>
<rect x="430" y="508" width="12" height="12" rx="2" fill="#FCEBEB" stroke="#A32D2D" stroke-width="0.8"/>
<text x="448" y="519" font-size="11" fill="#333">Scale-out trigger</text>
<rect x="575" y="508" width="12" height="12" rx="2" fill="#E6F1FB" stroke="#185FA5" stroke-width="0.8"/>
<text x="593" y="519" font-size="11" fill="#333">GCP cloud</text>
<line x1="680" y1="514" x2="710" y2="514" stroke="#1a73e8" stroke-width="2" marker-end="url(#arr-blue)"/>
<text x="718" y="519" font-size="11" fill="#333">gcloud API call</text>
</svg>
